<mxfile host="app.diagrams.net" agent="Mozilla/5.0 (Windows NT 10.0; Win64; x64) AppleWebKit/537.36 (KHTML, like Gecko) Chrome/141.0.0.0 Safari/537.36" version="28.2.7">
  <diagram name="Page-1" id="0t4Rk3qzsJG7LTaFxkpD">
    <mxGraphModel grid="1" page="1" gridSize="10" guides="1" tooltips="1" connect="1" arrows="1" fold="1" pageScale="1" pageWidth="850" pageHeight="1100" math="0" shadow="0">
      <root>
        <mxCell id="0" />
        <mxCell id="1" parent="0" />
        <mxCell id="8Mh1oN0NGYm48fOSlmdf-2" value="Aplikasi&amp;nbsp;&lt;div&gt;(user)&lt;/div&gt;" style="ellipse;whiteSpace=wrap;html=1;" vertex="1" parent="1">
          <mxGeometry x="60" y="80" width="120" height="80" as="geometry" />
        </mxCell>
        <mxCell id="8Mh1oN0NGYm48fOSlmdf-3" value="Kernel" style="ellipse;whiteSpace=wrap;html=1;" vertex="1" parent="1">
          <mxGeometry x="330" y="80" width="120" height="80" as="geometry" />
        </mxCell>
        <mxCell id="8Mh1oN0NGYm48fOSlmdf-4" value="Hardware" style="ellipse;whiteSpace=wrap;html=1;" vertex="1" parent="1">
          <mxGeometry x="610" y="80" width="120" height="80" as="geometry" />
        </mxCell>
        <mxCell id="8Mh1oN0NGYm48fOSlmdf-6" value="Aplikasi&amp;nbsp;&lt;div&gt;(user)&lt;/div&gt;" style="ellipse;whiteSpace=wrap;html=1;" vertex="1" parent="1">
          <mxGeometry x="820" y="80" width="120" height="80" as="geometry" />
        </mxCell>
        <mxCell id="8Mh1oN0NGYm48fOSlmdf-7" value="-Memangggil fungsi sistem (misal: read(), write())" style="rounded=0;whiteSpace=wrap;html=1;align=left;" vertex="1" parent="1">
          <mxGeometry x="50" y="250" width="120" height="60" as="geometry" />
        </mxCell>
        <mxCell id="8Mh1oN0NGYm48fOSlmdf-8" value="Permintaan system call" style="rhombus;whiteSpace=wrap;html=1;" vertex="1" parent="1">
          <mxGeometry x="60" y="350" width="100" height="80" as="geometry" />
        </mxCell>
        <mxCell id="8Mh1oN0NGYm48fOSlmdf-9" value="Interface system Call&lt;div&gt;-Mengubah permintaan menjadi trap ke kernel&lt;/div&gt;" style="rounded=0;whiteSpace=wrap;html=1;align=left;" vertex="1" parent="1">
          <mxGeometry x="50" y="470" width="120" height="60" as="geometry" />
        </mxCell>
        <mxCell id="8Mh1oN0NGYm48fOSlmdf-10" value="" style="endArrow=none;html=1;rounded=0;exitX=0.417;exitY=1;exitDx=0;exitDy=0;exitPerimeter=0;entryX=0.5;entryY=0.167;entryDx=0;entryDy=0;entryPerimeter=0;" edge="1" parent="1" source="8Mh1oN0NGYm48fOSlmdf-2" target="8Mh1oN0NGYm48fOSlmdf-7">
          <mxGeometry width="50" height="50" relative="1" as="geometry">
            <mxPoint x="400" y="300" as="sourcePoint" />
            <mxPoint x="450" y="250" as="targetPoint" />
          </mxGeometry>
        </mxCell>
        <mxCell id="8Mh1oN0NGYm48fOSlmdf-11" value="Trap ke kernel (mode user-&amp;gt;&lt;div&gt;mode kernel&lt;/div&gt;" style="rhombus;whiteSpace=wrap;html=1;fontSize=7;" vertex="1" parent="1">
          <mxGeometry x="50" y="560" width="101" height="80" as="geometry" />
        </mxCell>
        <mxCell id="LMijqFPGDNtqC9Maa4uh-1" value="-Memeriksa izin&lt;div&gt;-Menemukan handler&lt;/div&gt;&lt;div style=&quot;text-align: left;&quot;&gt;-Menjalankan rutin yang sesuai&lt;/div&gt;" style="rounded=0;whiteSpace=wrap;html=1;" vertex="1" parent="1">
          <mxGeometry x="330" y="240" width="120" height="60" as="geometry" />
        </mxCell>
        <mxCell id="LMijqFPGDNtqC9Maa4uh-2" value="Akses hardware&lt;div&gt;(melalui driver)&lt;/div&gt;" style="rhombus;whiteSpace=wrap;html=1;fontSize=11;" vertex="1" parent="1">
          <mxGeometry x="350" y="340" width="90" height="90" as="geometry" />
        </mxCell>
        <mxCell id="LMijqFPGDNtqC9Maa4uh-4" value="Device driver&lt;div&gt;&lt;div&gt;- Mengirim perintah&amp;nbsp;&amp;nbsp;&lt;/div&gt;&lt;div&gt;ke perangkat fisik&amp;nbsp;&lt;/div&gt;&lt;div&gt;(misal disk, dll)&lt;/div&gt;&lt;/div&gt;" style="rounded=0;whiteSpace=wrap;html=1;" vertex="1" parent="1">
          <mxGeometry x="335" y="470" width="120" height="60" as="geometry" />
        </mxCell>
        <mxCell id="LMijqFPGDNtqC9Maa4uh-5" value="Interaksi langsung" style="rhombus;whiteSpace=wrap;html=1;rounded=0;" vertex="1" parent="1">
          <mxGeometry x="355" y="560" width="80" height="80" as="geometry" />
        </mxCell>
        <mxCell id="LMijqFPGDNtqC9Maa4uh-7" value="Data di kembalikan ke kernel" style="rhombus;whiteSpace=wrap;html=1;" vertex="1" parent="1">
          <mxGeometry x="630" y="345" width="80" height="80" as="geometry" />
        </mxCell>
        <mxCell id="LMijqFPGDNtqC9Maa4uh-8" value="&lt;div&gt;&amp;nbsp;- Melakukan operasi&amp;nbsp;&lt;span style=&quot;background-color: transparent; color: light-dark(rgb(0, 0, 0), rgb(255, 255, 255));&quot;&gt;&amp;nbsp;sesuai instruksi&amp;nbsp; &amp;nbsp;&lt;/span&gt;&lt;/div&gt;&lt;div&gt;- Mengembalikan data&amp;nbsp;&lt;/div&gt;&lt;div&gt;&amp;nbsp; ke driver&amp;nbsp; &amp;nbsp;&lt;/div&gt;" style="rounded=0;whiteSpace=wrap;html=1;fontSize=9;" vertex="1" parent="1">
          <mxGeometry x="609" y="240" width="120" height="60" as="geometry" />
        </mxCell>
        <mxCell id="LMijqFPGDNtqC9Maa4uh-9" value="&lt;div&gt;&amp;nbsp;Kernel&lt;/div&gt;&lt;div&gt;- Mengolah hasil&amp;nbsp; &amp;nbsp; &amp;nbsp;&lt;/div&gt;&lt;div&gt;&amp;nbsp;- Menyalin data ke&amp;nbsp; &amp;nbsp;&amp;nbsp;&lt;span style=&quot;background-color: transparent; color: light-dark(rgb(0, 0, 0), rgb(255, 255, 255));&quot;&gt;&amp;nbsp; &amp;nbsp;ruang user&lt;/span&gt;&lt;/div&gt;" style="rounded=0;whiteSpace=wrap;html=1;" vertex="1" parent="1">
          <mxGeometry x="590" y="470" width="120" height="60" as="geometry" />
        </mxCell>
        <mxCell id="LMijqFPGDNtqC9Maa4uh-10" value="Kembali ke mode user" style="rhombus;whiteSpace=wrap;html=1;" vertex="1" parent="1">
          <mxGeometry x="630" y="560" width="80" height="80" as="geometry" />
        </mxCell>
        <mxCell id="LMijqFPGDNtqC9Maa4uh-12" value="(User mode lagi)" style="rounded=0;whiteSpace=wrap;html=1;" vertex="1" parent="1">
          <mxGeometry x="820" y="240" width="120" height="60" as="geometry" />
        </mxCell>
        <mxCell id="LMijqFPGDNtqC9Maa4uh-13" value="" style="endArrow=none;html=1;rounded=0;entryX=0.5;entryY=1;entryDx=0;entryDy=0;" edge="1" parent="1" source="8Mh1oN0NGYm48fOSlmdf-8" target="8Mh1oN0NGYm48fOSlmdf-7">
          <mxGeometry width="50" height="50" relative="1" as="geometry">
            <mxPoint x="460" y="370" as="sourcePoint" />
            <mxPoint x="510" y="320" as="targetPoint" />
          </mxGeometry>
        </mxCell>
        <mxCell id="LMijqFPGDNtqC9Maa4uh-14" value="" style="endArrow=none;html=1;rounded=0;entryX=0.5;entryY=1;entryDx=0;entryDy=0;exitX=0.5;exitY=0;exitDx=0;exitDy=0;" edge="1" parent="1" source="8Mh1oN0NGYm48fOSlmdf-9" target="8Mh1oN0NGYm48fOSlmdf-8">
          <mxGeometry width="50" height="50" relative="1" as="geometry">
            <mxPoint x="100" y="480" as="sourcePoint" />
            <mxPoint x="100" y="440" as="targetPoint" />
          </mxGeometry>
        </mxCell>
        <mxCell id="LMijqFPGDNtqC9Maa4uh-16" value="" style="endArrow=none;html=1;rounded=0;entryX=0.5;entryY=1;entryDx=0;entryDy=0;" edge="1" parent="1" source="LMijqFPGDNtqC9Maa4uh-1" target="8Mh1oN0NGYm48fOSlmdf-3">
          <mxGeometry width="50" height="50" relative="1" as="geometry">
            <mxPoint x="460" y="370" as="sourcePoint" />
            <mxPoint x="510" y="320" as="targetPoint" />
          </mxGeometry>
        </mxCell>
        <mxCell id="LMijqFPGDNtqC9Maa4uh-17" value="" style="endArrow=none;html=1;rounded=0;entryX=0.5;entryY=1;entryDx=0;entryDy=0;exitX=0.5;exitY=0;exitDx=0;exitDy=0;" edge="1" parent="1" source="LMijqFPGDNtqC9Maa4uh-2" target="LMijqFPGDNtqC9Maa4uh-1">
          <mxGeometry width="50" height="50" relative="1" as="geometry">
            <mxPoint x="390" y="330" as="sourcePoint" />
            <mxPoint x="330" y="280" as="targetPoint" />
          </mxGeometry>
        </mxCell>
        <mxCell id="LMijqFPGDNtqC9Maa4uh-18" value="" style="endArrow=none;html=1;rounded=0;entryX=0.5;entryY=0;entryDx=0;entryDy=0;exitX=0.5;exitY=1;exitDx=0;exitDy=0;" edge="1" parent="1" source="LMijqFPGDNtqC9Maa4uh-2" target="LMijqFPGDNtqC9Maa4uh-4">
          <mxGeometry width="50" height="50" relative="1" as="geometry">
            <mxPoint x="460" y="370" as="sourcePoint" />
            <mxPoint x="510" y="320" as="targetPoint" />
          </mxGeometry>
        </mxCell>
        <mxCell id="LMijqFPGDNtqC9Maa4uh-19" value="" style="endArrow=none;html=1;rounded=0;entryX=0.5;entryY=0;entryDx=0;entryDy=0;exitX=0.5;exitY=1;exitDx=0;exitDy=0;" edge="1" parent="1" source="8Mh1oN0NGYm48fOSlmdf-9" target="8Mh1oN0NGYm48fOSlmdf-11">
          <mxGeometry width="50" height="50" relative="1" as="geometry">
            <mxPoint x="460" y="370" as="sourcePoint" />
            <mxPoint x="510" y="320" as="targetPoint" />
          </mxGeometry>
        </mxCell>
        <mxCell id="LMijqFPGDNtqC9Maa4uh-21" value="" style="endArrow=classic;html=1;rounded=0;exitX=1;exitY=0.5;exitDx=0;exitDy=0;entryX=0;entryY=0.5;entryDx=0;entryDy=0;" edge="1" parent="1" source="8Mh1oN0NGYm48fOSlmdf-11" target="8Mh1oN0NGYm48fOSlmdf-3">
          <mxGeometry width="50" height="50" relative="1" as="geometry">
            <mxPoint x="450" y="370" as="sourcePoint" />
            <mxPoint x="500" y="320" as="targetPoint" />
          </mxGeometry>
        </mxCell>
        <mxCell id="LMijqFPGDNtqC9Maa4uh-23" value="" style="endArrow=classic;html=1;rounded=0;exitX=1;exitY=0.5;exitDx=0;exitDy=0;entryX=-0.014;entryY=0.593;entryDx=0;entryDy=0;entryPerimeter=0;" edge="1" parent="1" source="LMijqFPGDNtqC9Maa4uh-5" target="8Mh1oN0NGYm48fOSlmdf-4">
          <mxGeometry width="50" height="50" relative="1" as="geometry">
            <mxPoint x="450" y="370" as="sourcePoint" />
            <mxPoint x="500" y="320" as="targetPoint" />
          </mxGeometry>
        </mxCell>
        <mxCell id="LMijqFPGDNtqC9Maa4uh-24" value="" style="endArrow=classic;html=1;rounded=0;exitX=1;exitY=0.5;exitDx=0;exitDy=0;" edge="1" parent="1" source="LMijqFPGDNtqC9Maa4uh-10">
          <mxGeometry width="50" height="50" relative="1" as="geometry">
            <mxPoint x="770" y="180" as="sourcePoint" />
            <mxPoint x="820" y="130" as="targetPoint" />
          </mxGeometry>
        </mxCell>
        <mxCell id="LMijqFPGDNtqC9Maa4uh-25" value="" style="endArrow=none;html=1;rounded=0;entryX=0.451;entryY=1.001;entryDx=0;entryDy=0;entryPerimeter=0;exitX=0.5;exitY=0;exitDx=0;exitDy=0;" edge="1" parent="1" source="LMijqFPGDNtqC9Maa4uh-8" target="8Mh1oN0NGYm48fOSlmdf-4">
          <mxGeometry width="50" height="50" relative="1" as="geometry">
            <mxPoint x="450" y="370" as="sourcePoint" />
            <mxPoint x="500" y="320" as="targetPoint" />
          </mxGeometry>
        </mxCell>
        <mxCell id="LMijqFPGDNtqC9Maa4uh-26" value="" style="endArrow=none;html=1;rounded=0;exitX=0.5;exitY=0;exitDx=0;exitDy=0;entryX=0.5;entryY=1;entryDx=0;entryDy=0;" edge="1" parent="1" source="LMijqFPGDNtqC9Maa4uh-7" target="LMijqFPGDNtqC9Maa4uh-8">
          <mxGeometry width="50" height="50" relative="1" as="geometry">
            <mxPoint x="700" y="360" as="sourcePoint" />
            <mxPoint x="750" y="310" as="targetPoint" />
          </mxGeometry>
        </mxCell>
        <mxCell id="LMijqFPGDNtqC9Maa4uh-27" value="" style="endArrow=none;html=1;rounded=0;exitX=0.5;exitY=0;exitDx=0;exitDy=0;entryX=0.5;entryY=1;entryDx=0;entryDy=0;" edge="1" parent="1" source="LMijqFPGDNtqC9Maa4uh-9" target="LMijqFPGDNtqC9Maa4uh-7">
          <mxGeometry width="50" height="50" relative="1" as="geometry">
            <mxPoint x="661" y="485" as="sourcePoint" />
            <mxPoint x="660" y="440" as="targetPoint" />
          </mxGeometry>
        </mxCell>
        <mxCell id="LMijqFPGDNtqC9Maa4uh-29" value="" style="endArrow=none;html=1;rounded=0;exitX=0.5;exitY=0;exitDx=0;exitDy=0;entryX=0.5;entryY=1;entryDx=0;entryDy=0;" edge="1" parent="1" source="LMijqFPGDNtqC9Maa4uh-10" target="LMijqFPGDNtqC9Maa4uh-9">
          <mxGeometry width="50" height="50" relative="1" as="geometry">
            <mxPoint x="631" y="595" as="sourcePoint" />
            <mxPoint x="630" y="550" as="targetPoint" />
          </mxGeometry>
        </mxCell>
        <mxCell id="LMijqFPGDNtqC9Maa4uh-30" value="" style="endArrow=none;html=1;rounded=0;exitX=0.5;exitY=0;exitDx=0;exitDy=0;entryX=0.5;entryY=1;entryDx=0;entryDy=0;" edge="1" parent="1" target="8Mh1oN0NGYm48fOSlmdf-6">
          <mxGeometry width="50" height="50" relative="1" as="geometry">
            <mxPoint x="881" y="235" as="sourcePoint" />
            <mxPoint x="880" y="190" as="targetPoint" />
          </mxGeometry>
        </mxCell>
      </root>
    </mxGraphModel>
  </diagram>
</mxfile>
